<?xml version="1.0" ?><svg width="48px" height="48px" viewBox="0 0 48 48" data-name="Layer 1" id="Layer_1" xmlns="http://www.w3.org/2000/svg"><defs><style>.cls-1{fill:none;stroke:#000;stroke-linecap:round;stroke-miterlimit:10;stroke-width:2px;}</style></defs><title/><circle class="cls-1" cx="24" cy="31.12" r="5.86"/><path class="cls-1" d="M25.73,36.72l.19.56a1,1,0,0,0,.91.68H30a1,1,0,0,1,.58,1.76L28,41.59a1,1,0,0,0-.35,1.1l1,3a1,1,0,0,1-1.5,1.09l-2.57-1.87a1,1,0,0,0-1.16,0L20.85,46.8a1,1,0,0,1-1.5-1.09l1-3a1,1,0,0,0-.35-1.1L17.4,39.72A1,1,0,0,1,18,38h3.19a1,1,0,0,0,.91-.68l.19-.56"/><circle class="cls-1" cx="8" cy="6.03" r="4.79"/><path class="cls-1" d="M9.41,10.61l.15.46a.79.79,0,0,0,.75.55h2.61a.8.8,0,0,1,.47,1.44l-2.11,1.53a.8.8,0,0,0-.29.89L11.8,18a.8.8,0,0,1-1.23.89l-2.1-1.53a.81.81,0,0,0-.94,0l-2.1,1.53A.8.8,0,0,1,4.2,18L5,15.48a.8.8,0,0,0-.29-.89L2.61,13.06a.8.8,0,0,1,.47-1.44H5.69a.79.79,0,0,0,.75-.55l.15-.46"/><circle class="cls-1" cx="40" cy="6.03" r="4.79"/><path class="cls-1" d="M41.41,10.61l.15.46a.79.79,0,0,0,.75.55h2.61a.8.8,0,0,1,.47,1.44l-2.11,1.53a.8.8,0,0,0-.29.89L43.8,18a.8.8,0,0,1-1.23.89l-2.1-1.53a.81.81,0,0,0-.94,0l-2.1,1.53A.8.8,0,0,1,36.2,18L37,15.48a.8.8,0,0,0-.29-.89l-2.11-1.53a.8.8,0,0,1,.47-1.44h2.61a.79.79,0,0,0,.75-.55l.15-.46"/><polyline class="cls-1" points="40 17.16 40 42 27.7 42"/><line class="cls-1" x1="17" x2="12.09" y1="14" y2="14"/><line class="cls-1" x1="35.91" x2="31" y1="14" y2="14"/><polyline class="cls-1" points="8 17.16 8 42 20.3 42"/><path class="cls-1" d="M24,14a2.1,2.1,0,1,1,2.1-2.1"/><path class="cls-1" d="M24,14a2.1,2.1,0,1,1-2.1,2.1"/><line class="cls-1" x1="24" x2="24" y1="9" y2="9.8"/><line class="cls-1" x1="24" x2="24" y1="19.1" y2="18.2"/><circle class="cls-1" cx="24" cy="14" r="7"/></svg>