<?xml version="1.0" ?><svg width="48px" height="48px" viewBox="0 0 48 48" data-name="Layer 1" id="Layer_1" xmlns="http://www.w3.org/2000/svg"><defs><style>.cls-1{fill:none;stroke:#000;stroke-linecap:round;stroke-miterlimit:10;stroke-width:2px;}</style></defs><title/><polyline class="cls-1" points="34 18 47 18 47 47 1 47 1 18 15 18"/><polyline class="cls-1" points="15 11 15 1 34 1 34 11"/><path class="cls-1" d="M24,32a3,3,0,1,1,2.1-5.14A3,3,0,0,1,27,29"/><path class="cls-1" d="M24,32a3,3,0,1,1-3,3"/><line class="cls-1" x1="24" x2="24" y1="25" y2="26"/><line class="cls-1" x1="24" x2="24" y1="39" y2="38"/><circle class="cls-1" cx="24" cy="32" r="10"/><line class="cls-1" x1="15" x2="34" y1="18" y2="18"/><line class="cls-1" x1="19" x2="30" y1="4" y2="4"/><line class="cls-1" x1="19" x2="30" y1="8" y2="8"/><line class="cls-1" x1="12" x2="23" y1="14" y2="14"/><line class="cls-1" x1="5" x2="8" y1="23" y2="23"/><line class="cls-1" x1="5" x2="8" y1="27" y2="27"/><line class="cls-1" x1="5" x2="8" y1="31" y2="31"/><line class="cls-1" x1="5" x2="8" y1="35" y2="35"/><line class="cls-1" x1="5" x2="8" y1="39" y2="39"/><line class="cls-1" x1="5" x2="8" y1="43" y2="43"/><line class="cls-1" x1="40" x2="43" y1="23" y2="23"/><line class="cls-1" x1="40" x2="43" y1="27" y2="27"/><line class="cls-1" x1="40" x2="43" y1="31" y2="31"/><line class="cls-1" x1="40" x2="43" y1="35" y2="35"/><line class="cls-1" x1="40" x2="43" y1="39" y2="39"/><line class="cls-1" x1="40" x2="43" y1="43" y2="43"/><rect class="cls-1" height="7" width="33" x="8" y="11"/><line class="cls-1" x1="26" x2="37" y1="14" y2="14"/></svg>